<svg width="246" height="211" viewBox="0 0 246 211" fill="none" xmlns="http://www.w3.org/2000/svg">
<g clip-path="url(#clip0_674_188)">
<g filter="url(#filter0_f_674_188)">
<path d="M166.324 52.075L150.66 34.9797L145.689 41.2466L156.215 52.539L170.926 64.6961L170.469 59.1313L166.324 52.075Z" fill="#E2DFD0"/>
</g>
<path d="M166.733 99.6868C167.152 110.157 164.082 120.426 158.021 128.824C151.961 137.222 143.267 143.254 133.353 145.939C123.44 148.624 112.891 147.804 103.422 143.612C93.9533 139.421 86.122 132.104 81.2021 122.853V122.853C83.4423 121.634 86.2444 122.511 87.6935 124.634C92.0761 131.054 98.1439 136.143 105.234 139.282C113.738 143.047 123.213 143.783 132.117 141.372C141.021 138.96 148.829 133.542 154.273 126C158.818 119.702 161.491 112.231 162.03 104.463C162.207 101.91 164.173 99.7657 166.733 99.6868V99.6868Z" fill="white"/>
<path d="M193.972 97.328C195.003 114.458 190.181 131.361 180.326 145.164C170.471 158.967 156.191 168.818 139.913 173.042C123.635 177.267 106.363 175.605 91.0322 168.339C75.7018 161.073 63.2589 148.651 55.8182 133.184V133.184C62.1984 130.053 69.8606 132.876 74.2361 138.539C80.1058 146.137 87.6797 152.284 96.3856 156.411C108.997 162.388 123.205 163.755 136.596 160.28C149.987 156.804 161.734 148.701 169.841 137.346C175.455 129.483 179.084 120.396 180.503 110.872C181.552 103.824 186.844 97.6965 193.972 97.328V97.328Z" fill="white"/>
<path d="M100.768 24.7917C172.397 5.5993 195.917 81.0724 195.917 81.0724C197.48 86.9069 241.544 75.5809 241.544 75.5809L5.12751 138.929C5.13694 138.926 47.9515 126.491 46.5087 121.106C46.5087 121.106 29.1408 43.9843 100.768 24.7917ZM110.395 60.6985C105.201 62.0901 100.339 64.5124 96.0843 67.8279C91.8299 71.1435 88.2665 75.2877 85.5991 80.0226C82.9318 84.7574 81.2121 89.9907 80.5377 95.4238C79.9729 99.9746 81.3028 107.657 82.5849 113.149C82.9615 114.763 84.6082 115.711 86.2086 115.282L159.511 95.6407C161.112 95.2119 162.061 93.567 161.522 92C159.686 86.656 156.38 79.5019 153.615 75.8427C150.314 71.4746 146.208 67.8027 141.53 65.0359C136.853 62.2691 131.696 60.4615 126.353 59.7173C121.011 58.9731 115.588 59.3069 110.395 60.6985ZM105.578 42.7446C90.4269 46.8043 77.5432 56.8455 69.7617 70.658C61.9804 84.4704 59.9381 100.924 64.0843 116.398C71.3409 114.453 75.4326 106.925 75.6211 99.4153C75.8117 91.8209 77.8318 84.3376 81.5955 77.6569C87.5873 67.0215 97.5077 59.2907 109.174 56.1647C120.84 53.0389 133.297 54.7736 143.803 60.9884C150.403 64.8922 155.893 70.3631 159.856 76.8447C163.774 83.2545 171.082 87.7281 178.338 85.7837C174.192 70.3096 164.196 57.0817 150.551 49.0105C136.906 40.9393 120.729 38.685 105.578 42.7446Z" fill="white"/>
<path d="M100.768 24.7917L100.639 24.3087L100.639 24.3087L100.768 24.7917ZM195.917 81.0724L196.4 80.943L196.397 80.9333L196.394 80.9237L195.917 81.0724ZM241.544 75.5809L241.674 76.0639L241.42 75.0967L241.544 75.5809ZM5.12751 138.929L4.98806 138.448L5.25692 139.412L5.12751 138.929ZM46.5087 121.106L46.021 121.216L46.0232 121.226L46.0258 121.236L46.5087 121.106ZM110.395 60.6985L110.265 60.2156L110.265 60.2156L110.395 60.6985ZM96.0843 67.8279L95.777 67.4335L95.777 67.4335L96.0843 67.8279ZM85.5991 80.0226L85.1635 79.7772L85.1635 79.7772L85.5991 80.0226ZM80.5377 95.4238L80.0416 95.3622L80.0416 95.3622L80.5377 95.4238ZM82.5849 113.149L82.0979 113.263L82.0979 113.263L82.5849 113.149ZM86.2086 115.282L86.338 115.765L86.338 115.765L86.2086 115.282ZM159.511 95.6407L159.382 95.1577L159.511 95.6407ZM161.522 92L161.995 91.8376L161.995 91.8376L161.522 92ZM153.615 75.8427L154.014 75.5413L154.014 75.5413L153.615 75.8427ZM141.53 65.0359L141.785 64.6055L141.785 64.6055L141.53 65.0359ZM126.353 59.7173L126.422 59.2221L126.422 59.2221L126.353 59.7173ZM105.578 42.7446L105.448 42.2616L105.448 42.2616L105.578 42.7446ZM69.7617 70.658L69.3261 70.4126L69.3261 70.4126L69.7617 70.658ZM64.0843 116.398L63.6014 116.527L63.7308 117.01L64.2137 116.881L64.0843 116.398ZM75.6211 99.4153L75.1212 99.4028L75.1212 99.4028L75.6211 99.4153ZM81.5955 77.6569L81.1599 77.4115L81.1599 77.4115L81.5955 77.6569ZM109.174 56.1647L109.044 55.6818L109.044 55.6818L109.174 56.1647ZM143.803 60.9884L144.058 60.558L144.058 60.558L143.803 60.9884ZM159.856 76.8447L160.282 76.5839L160.282 76.5839L159.856 76.8447ZM178.338 85.7837L178.467 86.2666L178.95 86.1372L178.821 85.6543L178.338 85.7837ZM150.551 49.0105L150.806 48.5801L150.806 48.5801L150.551 49.0105ZM100.768 24.7917L100.898 25.2747C118.714 20.501 133.51 21.6195 145.686 25.9597C157.867 30.3019 167.455 37.88 174.832 46.0695C182.209 54.2599 187.363 63.0518 190.674 69.7999C192.329 73.1729 193.521 76.0325 194.3 78.0472C194.689 79.0544 194.975 79.8502 195.163 80.3931C195.257 80.6645 195.326 80.8727 195.372 81.0125C195.395 81.0823 195.412 81.1351 195.423 81.1701C195.429 81.1876 195.433 81.2007 195.436 81.2092C195.437 81.2135 195.438 81.2166 195.439 81.2186C195.439 81.2196 195.439 81.2203 195.439 81.2208C195.44 81.2211 195.44 81.2212 195.917 81.0724C196.394 80.9237 196.394 80.9232 196.394 80.9224C196.394 80.9217 196.393 80.9206 196.393 80.9193C196.392 80.9168 196.391 80.913 196.389 80.9082C196.386 80.8985 196.382 80.8842 196.376 80.8655C196.364 80.8281 196.346 80.7729 196.322 80.7006C196.275 80.5559 196.204 80.3426 196.108 80.0659C195.916 79.5126 195.627 78.7057 195.233 77.6867C194.445 75.6489 193.241 72.7621 191.572 69.3594C188.234 62.5561 183.031 53.6791 175.575 45.4003C168.117 37.1206 158.396 29.429 146.021 25.0178C133.642 20.6047 118.637 19.4862 100.639 24.3087L100.768 24.7917ZM195.917 81.0724L195.434 81.2019C195.576 81.7323 195.952 82.1236 196.436 82.4045C196.914 82.6826 197.53 82.8738 198.236 83.0034C199.649 83.2628 201.546 83.2964 203.734 83.175C208.118 82.9318 213.798 82.0581 219.409 81.006C225.025 79.9531 230.589 78.7179 234.749 77.7463C236.829 77.2605 238.558 76.8403 239.768 76.5416C240.373 76.3922 240.848 76.2732 241.172 76.1915C241.333 76.1506 241.458 76.1191 241.541 76.0978C241.583 76.0871 241.615 76.079 241.636 76.0735C241.647 76.0708 241.655 76.0687 241.661 76.0673C241.663 76.0666 241.665 76.0661 241.667 76.0657C241.667 76.0655 241.668 76.0654 241.668 76.0653C241.669 76.0652 241.669 76.0652 241.544 75.5809C241.42 75.0967 241.42 75.0967 241.42 75.0968C241.419 75.0969 241.419 75.097 241.418 75.0971C241.417 75.0975 241.415 75.098 241.412 75.0987C241.407 75.1 241.399 75.102 241.389 75.1047C241.368 75.1101 241.336 75.1181 241.295 75.1287C241.212 75.1499 241.088 75.1812 240.927 75.2219C240.605 75.3032 240.131 75.4218 239.528 75.5708C238.322 75.8686 236.597 76.2878 234.521 76.7725C230.37 77.7422 224.821 78.9739 219.225 80.0232C213.624 81.0733 207.996 81.9371 203.678 82.1766C201.515 82.2966 199.712 82.2577 198.417 82.0198C197.768 81.9007 197.277 81.737 196.938 81.54C196.604 81.3459 196.453 81.1418 196.4 80.943L195.917 81.0724ZM241.544 75.5809L241.415 75.098L4.9981 138.446L5.12751 138.929L5.25692 139.412L241.674 76.0639L241.544 75.5809ZM5.12751 138.929L5.26696 139.409C5.27392 139.407 15.9921 136.294 26.5318 132.506C31.7987 130.614 37.0389 128.546 40.8782 126.609C42.7939 125.642 44.3879 124.695 45.4642 123.803C46.0013 123.358 46.4344 122.907 46.7095 122.453C46.9866 121.995 47.129 121.489 46.9917 120.977L46.5087 121.106L46.0258 121.236C46.0689 121.396 46.0458 121.618 45.8542 121.935C45.6607 122.254 45.3218 122.623 44.8263 123.033C43.8373 123.852 42.3231 124.76 40.4277 125.716C36.6447 127.625 31.4512 129.676 26.1936 131.565C15.6843 135.342 4.99053 138.448 4.98806 138.448L5.12751 138.929ZM46.5087 121.106C46.9965 120.996 46.9965 120.996 46.9964 120.996C46.9963 120.995 46.9962 120.995 46.9959 120.994C46.9955 120.992 46.9948 120.988 46.9938 120.984C46.9919 120.975 46.9889 120.962 46.985 120.944C46.9772 120.908 46.9656 120.854 46.9505 120.782C46.9204 120.638 46.8765 120.423 46.8222 120.141C46.7135 119.577 46.5629 118.745 46.3964 117.678C46.0633 115.544 45.6665 112.471 45.413 108.722C44.9061 101.223 44.9739 91.0318 47.2673 80.2502C49.5604 69.4698 54.0755 58.1125 62.4533 48.2616C70.8275 38.4151 83.082 30.0484 100.898 25.2747L100.768 24.7917L100.639 24.3087C82.641 29.1313 70.2062 37.6021 61.6916 47.6138C53.1806 57.6212 48.6075 69.143 46.2892 80.0422C43.971 90.9402 43.9042 101.229 44.4153 108.79C44.671 112.571 45.0714 115.673 45.4083 117.832C45.5768 118.911 45.7294 119.755 45.8402 120.33C45.8956 120.617 45.9405 120.838 45.9717 120.987C45.9873 121.061 45.9995 121.118 46.0078 121.156C46.012 121.176 46.0152 121.19 46.0174 121.2C46.0185 121.205 46.0194 121.209 46.02 121.212C46.0203 121.213 46.0205 121.214 46.0207 121.215C46.0208 121.216 46.021 121.216 46.5087 121.106ZM110.395 60.6985L110.265 60.2156C105.007 61.6246 100.084 64.077 95.777 67.4335L96.0843 67.8279L96.3917 68.2223C100.593 64.9478 105.396 62.5557 110.524 61.1815L110.395 60.6985ZM96.0843 67.8279L95.777 67.4335C91.47 70.7901 87.8632 74.9851 85.1635 79.7772L85.5991 80.0226L86.0347 80.268C88.6699 75.5904 92.1899 71.4969 96.3917 68.2223L96.0843 67.8279ZM85.5991 80.0226L85.1635 79.7772C82.4639 84.5691 80.7239 89.865 80.0416 95.3622L80.5377 95.4238L81.0339 95.4854C81.7004 90.1164 83.3996 84.9456 86.0347 80.268L85.5991 80.0226ZM80.5377 95.4238L80.0416 95.3622C79.751 97.7028 79.9495 100.813 80.3731 103.999C80.7978 107.195 81.4543 110.505 82.0979 113.263L82.5849 113.149L83.0718 113.036C82.4334 110.301 81.7838 107.024 81.3643 103.868C80.9436 100.702 80.7596 97.6955 81.0339 95.4854L80.5377 95.4238ZM82.5849 113.149L82.0979 113.263C82.5412 115.162 84.4748 116.264 86.338 115.765L86.2086 115.282L86.0792 114.799C84.7416 115.158 83.3818 114.364 83.0718 113.036L82.5849 113.149ZM86.2086 115.282L86.338 115.765L159.641 96.1236L159.511 95.6407L159.382 95.1577L86.0792 114.799L86.2086 115.282ZM159.511 95.6407L159.641 96.1236C161.501 95.6253 162.635 93.6982 161.995 91.8376L161.522 92L161.05 92.1625C161.487 93.4358 160.723 94.7984 159.382 95.1577L159.511 95.6407ZM161.522 92L161.995 91.8376C160.152 86.4728 156.825 79.2617 154.014 75.5413L153.615 75.8427L153.216 76.1442C155.935 79.7421 159.221 86.8391 161.05 92.1625L161.522 92ZM153.615 75.8427L154.014 75.5413C150.674 71.1216 146.519 67.4057 141.785 64.6055L141.53 65.0359L141.276 65.4662C145.897 68.1996 149.955 71.8277 153.216 76.1442L153.615 75.8427ZM141.53 65.0359L141.785 64.6055C137.051 61.8053 131.831 59.9755 126.422 59.2221L126.353 59.7173L126.284 60.2125C131.561 60.9475 136.655 62.7328 141.276 65.4662L141.53 65.0359ZM126.353 59.7173L126.422 59.2221C121.014 58.4687 115.524 58.8066 110.265 60.2156L110.395 60.6985L110.524 61.1815C115.653 59.8072 121.008 59.4775 126.284 60.2125L126.353 59.7173ZM105.578 42.7446L105.448 42.2616C90.1661 46.3565 77.1727 56.4844 69.3261 70.4126L69.7617 70.658L70.1973 70.9034C77.9136 57.2066 90.6878 47.252 105.707 43.2276L105.578 42.7446ZM69.7617 70.658L69.3261 70.4126C61.4798 84.3403 59.4217 100.928 63.6014 116.527L64.0843 116.398L64.5673 116.268C60.4545 100.919 62.481 84.6006 70.1973 70.9034L69.7617 70.658ZM64.0843 116.398L64.2137 116.881C71.7589 114.859 75.9291 107.072 76.1209 99.4279L75.6211 99.4153L75.1212 99.4028C74.9361 106.779 70.9229 114.048 63.9549 115.915L64.0843 116.398ZM75.6211 99.4153L76.1209 99.4279C76.3095 91.9136 78.3083 84.5105 82.0311 77.9023L81.5955 77.6569L81.1599 77.4115C77.3554 84.1647 75.3138 91.7281 75.1212 99.4028L75.6211 99.4153ZM81.5955 77.6569L82.0311 77.9023C87.9577 67.3826 97.7685 59.7384 109.303 56.6477L109.174 56.1647L109.044 55.6818C97.2469 58.8429 87.2168 66.6603 81.1599 77.4115L81.5955 77.6569ZM109.174 56.1647L109.303 56.6477C120.838 53.5571 133.156 55.2715 143.549 61.4187L143.803 60.9884L144.058 60.558C133.437 54.2756 120.842 52.5207 109.044 55.6818L109.174 56.1647ZM143.803 60.9884L143.549 61.4187C150.077 65.2801 155.509 70.6923 159.429 77.1055L159.856 76.8447L160.282 76.5839C156.278 70.0339 150.729 64.5042 144.058 60.558L143.803 60.9884ZM159.856 76.8447L159.429 77.1055C163.417 83.6292 170.922 88.2884 178.467 86.2666L178.338 85.7837L178.209 85.3007C171.241 87.1678 164.131 82.8798 160.282 76.5839L159.856 76.8447ZM178.338 85.7837L178.821 85.6543C174.641 70.0553 164.565 56.7187 150.806 48.5801L150.551 49.0105L150.297 49.4408C163.828 57.4447 173.742 70.5638 177.855 85.9131L178.338 85.7837ZM150.551 49.0105L150.806 48.5801C137.047 40.4413 120.731 38.1669 105.448 42.2616L105.578 42.7446L105.707 43.2276C120.727 39.2032 136.766 41.4373 150.297 49.4408L150.551 49.0105Z" fill="white"/>
</g>
<defs>
<filter id="filter0_f_674_188" x="95.6895" y="-15.0203" width="125.236" height="129.716" filterUnits="userSpaceOnUse" color-interpolation-filters="sRGB">
<feFlood flood-opacity="0" result="BackgroundImageFix"/>
<feBlend mode="normal" in="SourceGraphic" in2="BackgroundImageFix" result="shape"/>
<feGaussianBlur stdDeviation="25" result="effect1_foregroundBlur_674_188"/>
</filter>
<clipPath id="clip0_674_188">
<rect width="246" height="211" fill="white"/>
</clipPath>
</defs>
</svg>
